<svg xmlns="http://www.w3.org/2000/svg" xmlns:xlink="http://www.w3.org/1999/xlink" viewBox="0 0 742.41 116.14"><defs><style>.cls-1{isolation:isolate;}.cls-2{mix-blend-mode:difference;fill:url(#radial-gradient);}.cls-3{mix-blend-mode:color-burn;}.cls-4{fill:#66be8e;}.cls-5{fill:#fff;}</style><radialGradient id="radial-gradient" cx="934.71" cy="58.07" r="155.27" gradientTransform="translate(-3139.65) scale(3.76 1)" gradientUnits="userSpaceOnUse"><stop offset="0" stop-color="#009343"/><stop offset="0.17" stop-color="#008c40"/><stop offset="0.43" stop-color="#017837"/><stop offset="0.73" stop-color="#03572a"/><stop offset="1" stop-color="#05351b"/></radialGradient></defs><title>SoccerField</title><g class="cls-1"><g id="Capa_2" data-name="Capa 2"><g id="Football_Field" data-name="Football Field"><polygon class="cls-2" points="742.41 116.14 0 116.14 200.85 0 541.57 0 742.41 116.14"/><g class="cls-3"><polygon class="cls-4" points="94.47 116.14 0 116.14 200.85 0 244.2 0 94.47 116.14"/><polygon class="cls-4" points="283.4 116.14 188.93 116.14 287.56 0 330.91 0 283.4 116.14"/><polygon class="cls-4" points="472.33 116.14 377.87 116.14 374.26 0 417.62 0 472.33 116.14"/><polygon class="cls-4" points="661.27 116.14 566.8 116.14 460.97 0 504.33 0 661.27 116.14"/></g><path class="cls-5" d="M537,1.16H203.85l-.7.42-182,108.37-3.09,1.84H724.33l-3.09-1.84L539.26,1.57l-.7-.42Zm-326.29.42a25.62,25.62,0,0,1-8.16,1.28l2.13-1.28Zm14.29,25c1.84,2.9.74,6.38-3.48,10.19-4.47,4-12.12,8.17-22.46,12Zm.67-2.75L191.26,52.73l-28,23.55h-81l37.43-22.64h34.19L197.34,23.2H170l18.89-11.42H240Zm-56.36-.19h26.23L153.23,53H120.68ZM24.41,109.95l11.38-6.84c4.16.76,3.77,3.49-1.64,6.84Zm12.63,0c6.76-4.22,7-7.62,1.34-8.4L77.54,78h87.31l31.62-27c13.12-4.48,22.66-9.42,27.89-14.24,4.88-4.49,5.61-8.53,2.51-11.76L243.07,11.1H188.86l13.07-7.85a30.47,30.47,0,0,0,10.23-1.67h160.6l.25,15.9h-1.8c-28.83,0-55.81,7.85-60.88,19.08C304.26,50,331,63.13,371.21,63.13l2.51,0,.73,46.85ZM375.43,37.56c.85-.15,1.44-.46,1.42-.83s-.62-.68-1.47-.82l-.55-17.65c26.15.59,50,8,54.45,18.28,5.24,12.18-17.73,24-53.11,25.05Zm-2.14-1.65c-.84.14-1.43.45-1.43.82s.6.68,1.46.83l.37,24.09-2.48,0c-38,0-63.58-12.35-58.07-25.14,4.62-10.76,30.4-18.32,58.07-18.32H373Zm4.38,74L376.22,63c37.53-1.12,61.66-13.66,55.87-26.51-4.87-10.8-30-18.45-57.28-19l-.49-15.92H531.65c1.61,1,5.63,1.86,9.49,2.06L553.34,11H499.19L515.37,24.8c-3.1,3.23-2.38,7.25,2.49,11.73,5.21,4.8,14.72,9.72,27.82,14.2l31.51,26.95h87.14l42.23,25.39c-7.39,0-8.94,2.9-4.08,6.88ZM543.07,48.5c-10.32-3.82-18-7.93-22.41-12-4.21-3.8-5.3-7.27-3.46-10.16Zm7.8,4L516.53,23.63l-14.26-12h51.05L572.17,23H544.85l43.36,30.35h34.13L659.65,76H578.79Zm70.47.3h-32.5L546.62,23.44h26.2Zm84.12,57.17c-3.56-3.11-2.23-5.35,3.65-5.35l8.9,5.35ZM540.47,3.23c-3-.19-6.16-.87-7.44-1.66h4.68Z"/><path class="cls-5" d="M578.82,37.45c1.38,0,1.87-.41,1.09-.91a8.51,8.51,0,0,0-3.87-.9c-1.37,0-1.87.4-1.11.9A8.48,8.48,0,0,0,578.82,37.45Z"/><path class="cls-5" d="M166.08,35.82a8.53,8.53,0,0,0-3.88.91c-.78.5-.29.92,1.09.92a8.47,8.47,0,0,0,3.9-.92C167.95,36.23,167.45,35.82,166.08,35.82Z"/></g></g></g></svg>