<svg width="480" height="200" xmlns="http://www.w3.org/2000/svg" style="vector-effect: non-scaling-stroke;" stroke="null">

 <g stroke="null">
  <title stroke="null">background</title>
  <rect stroke="null" fill="none" id="canvas_background" height="202" width="482" y="-1" x="-1"/>
 </g>
 <g stroke="null">
  <title stroke="null">Layer 1</title>
  <g stroke="null" id="svg_14">
   <path stroke="null" id="svg_19" fill="#334C5B" d="m283.285716,50.596003l-21.642858,0c-7.957357,0 -14.428572,6.179035 -14.428572,13.969992l0,21.209501c0,3.909618 3.232,7.23951 7.214286,7.23951l21.642858,0l0,14.139668l-28.857143,0l0,6.900158c0,3.909618 3.232,7.23951 7.214286,7.23951l21.642858,0c7.957357,0 14.428572,-6.511317 14.428572,-14.309344l0,-21.209501c0,-3.902548 -3.232,-6.900158 -7.214286,-6.900158l-21.642858,0l0,-14.139668l28.857143,0l0,-7.23951c0,-3.902548 -3.232,-6.900158 -7.214286,-6.900158z"/>
   <path stroke="null" id="svg_20" fill="#334C5B" d="m232.785715,50.596003l-14.428572,0l0,46.392249l-7.214286,7.069834l-7.214286,-7.069834l0,-46.392249l-14.428572,0l0,49.31916c0,1.880576 0.7575,3.669244 2.113786,4.998372l14.428572,14.139668c1.406786,1.378618 3.253643,2.071461 5.1005,2.071461s3.693714,-0.692844 5.1005,-2.071461l14.428572,-14.139668c1.349071,-1.322059 2.113786,-3.117797 2.113786,-4.998372l0,-49.31916z"/>
   <rect stroke="null" id="svg_21" fill="#334C5B" height="14.139668" width="14.428572" y="135.264332" x="203.928572"/>
   <rect stroke="null" id="svg_22" fill="#334C5B" height="14.139668" width="14.428572" y="135.264332" x="232.785715"/>
   <rect stroke="null" id="svg_23" fill="#334C5B" height="14.139668" width="14.428572" y="135.264332" x="261.642859"/>
  </g>
  <g stroke="null" id="svg_36"/>
  <g stroke="null" id="svg_37"/>
  <g stroke="null" id="svg_38"/>
  <g stroke="null" id="svg_39"/>
  <g stroke="null" id="svg_40"/>
  <g stroke="null" id="svg_41"/>
  <g stroke="null" id="svg_42"/>
  <g stroke="null" id="svg_43"/>
  <g stroke="null" id="svg_44"/>
  <g stroke="null" id="svg_45"/>
  <g stroke="null" id="svg_46"/>
  <g stroke="null" id="svg_47"/>
  <g stroke="null" id="svg_48"/>
  <g stroke="null" id="svg_49"/>
  <g stroke="null" id="svg_50"/>
  <g stroke="null" id="svg_120">
   <rect stroke="null" transform="matrix(0.38194446225785983,0,0,0.37569441525082303,-388.5115827079165,-767.5668969986988) " id="svg_88" fill="#da544a" height="16" width="24" y="2093.235601" x="1033.193929"/>
   <path stroke="null" id="svg_89" fill="#f21a18" d="m21.388895,27.866694l3.055556,0l15.277778,0l0,6.011111l-12.222223,0l0,76.695761l64.16667,54.511757l64.16667,-54.511757l0,-76.695761l-12.222223,0l0,-6.011111l15.277778,0l3.055556,0l0,-12.022221l-140.555562,0l0,12.022221zm61.111114,105.122303l-6.111111,0l0,-6.011111l6.111111,0l0,6.011111zm12.222223,12.022221l-6.111111,0l0,-6.011111l6.111111,0l0,6.011111zm0,-12.022221l-6.111111,0l0,-6.011111l6.111111,0l0,6.011111zm12.222223,0l-6.111111,0l0,-6.011111l6.111111,0l0,6.011111zm-15.277778,-96.17777c23.58889,0 42.77778,18.874887 42.77778,42.077775s-19.18889,42.077775 -42.77778,42.077775s-42.77778,-18.874887 -42.77778,-42.077775c0,-23.199882 19.18889,-42.077775 42.77778,-42.077775z"/>
   <rect stroke="null" transform="matrix(0.38194446225785983,0,0,0.37569441525082303,-388.5115827079165,-767.5668969986988) " id="svg_90" fill="#da544a" height="16" width="24" y="2093.235601" x="1457.193929"/>
   <g stroke="null" transform="matrix(0.38194446225785983,0,0,0.37569441525082303,-388.5115827079165,-767.5668969986988) " id="svg_91">
    <path stroke="null" id="svg_92" fill="#E5E8E8" d="m1236.505964,2301.235647l-32.104,32.008c15.16,10.024 33.288,15.856 52.792,15.856s37.632,-5.808 52.792,-15.832l-32.104,-32.032l-41.376,0z"/>
    <path stroke="null" id="svg_93" fill="#E5E8E8" d="m1339.401964,2203.715647c-15.512,-25.744 -42.208,-43.648 -74.208,-46.264l0,51.064l32.104,19.256l42.104,-24.056z"/>
    <path stroke="null" id="svg_94" fill="#E5E8E8" d="m1290.177964,2290.723647l32.408,32.408c18.784,-17.536 30.608,-42.424 30.608,-70.088c0,-12.344 -2.424,-24.112 -6.688,-34.968l-42.512,24.296l-13.816,48.352z"/>
    <path stroke="null" id="svg_95" fill="#E5E8E8" d="m1224.209964,2290.723647l-11.08,-38.784l-47.656,-27.232c-2.776,8.96 -4.28,18.48 -4.28,28.336c0,27.656 11.824,52.552 30.608,70.08l32.408,-32.4z"/>
   </g>
   <polygon stroke="null" id="svg_96" fill="#da544a" points="84.80390167236328,90.98331451416016 98.52947998046875,90.98331451416016 103.36335754394531,74.3055191040039 91.66668701171875,67.38379669189453 79.97003936767578,74.31449127197266 "/>
   <path stroke="null" id="svg_97" fill="#E5E8E8" d="m74.815287,70.30213l13.795834,-8.142049l0,-19.18446c-12.222223,1.060961 -24.013612,8.773216 -29.632779,19.662343l14.996667,8.430583c0.229167,-0.29755 0.501111,-0.565044 0.840278,-0.766417z"/>
   <g stroke="null" transform="matrix(0.38194446225785983,0,0,0.37569441525082303,-388.5115827079165,-767.5668969986988) " id="svg_98">
    <path stroke="null" id="svg_99" fill="#334C5B" d="m1489.193964,2077.235647l-32,0c0,-8 -3.576,-8 -8,-8l-384,0c-4.424,0 -8,0 -8,8l-32,0c-4.424,0 -8,3.392 -8,7.808l0,32c0,4.424 3.576,8.192 8,8.192l32,0c0,8 3.576,8 8,8l8,0l0,207.808c0,2.328 1.008,4.528 2.776,6.056l13.224,11.424l0,54.712l16,0l0,-40.896l16,13.816l0,51.08l16,0l0,-37.256l16,13.816l0,55.44l16,0l0,-41.624l16,13.816l0,51.808l16,0l0,-37.984l16,13.816l0,48.168l16,0l0,-34.344l16,13.816l0,52.528l16,0l0,-52.528l16,-13.816l0,34.344l16,0l0,-48.168l16,-13.816l0,37.984l16,0l0,-51.8l16,-13.816l0,41.616l16,0l0,-55.44l16,-13.816l0,37.256l16,0l0,-51.072l16,-13.816l0,40.888l16,0l0,-54.712l13.224,-11.424c1.768,-1.52 2.776,-3.728 2.776,-6.056l0,-207.808l8,0c4.424,0 8,0 8,-8l32,0c4.424,0 8,-3.768 8,-8.192l0,-32c0,-4.416 -3.576,-7.808 -8,-7.808zm-432,32l-24,0l0,-16l24,0l0,16zm384,8l-8,0l-40,0l0,16l32,0l0,204.144l-168,145.096l-168,-145.096l0,-204.144l32,0l0,-16l-40,0l-8,0l0,-32l368,0l0,32zm40,-8l-24,0l0,-16l24,0l0,16z"/>
    <path stroke="null" id="svg_100" fill="#334C5B" d="m1257.193964,2365.043647c61.76,0 112,-50.24 112,-112s-50.24,-112 -112,-112s-112,50.24 -112,112s50.24,112 112,112zm0,-16c-19.496,0 -37.632,-5.784 -52.792,-15.808l32.104,-32l41.376,0l32.104,32.008c-15.16,10.024 -33.296,15.8 -52.792,15.8zm96,-96c0,27.656 -11.824,52.552 -30.608,70.08l-32.408,-32.408l13.816,-48.344l42.512,-24.296c4.264,10.856 6.688,22.624 6.688,34.968zm-88,-95.592c32,2.616 58.696,20.52 74.208,46.264l-42.104,24.056l-32.104,-19.256l0,-51.064zm22.624,83.392l-12.656,44.392l-35.936,0l-12.656,-44.392l30.624,-18.376l30.624,18.376zm-38.624,-83.392l0,51.064l-36.12,21.672c-0.888,0.536 -1.6,1.248 -2.2,2.04l-39.264,-22.44c14.712,-28.984 45.584,-49.512 77.584,-52.336zm-83.72,67.256l47.656,27.232l11.08,38.784l-32.408,32.408c-18.784,-17.536 -30.608,-42.424 -30.608,-70.088c0,-9.856 1.504,-19.376 4.28,-28.336z"/>
    <rect stroke="null" id="svg_101" fill="#334C5B" height="16" width="16" y="2381.043647" x="1217.193964"/>
    <rect stroke="null" id="svg_102" fill="#334C5B" height="16" width="16" y="2381.043647" x="1249.193964"/>
    <rect stroke="null" id="svg_103" fill="#334C5B" height="16" width="16" y="2381.043647" x="1281.193964"/>
    <rect stroke="null" id="svg_104" fill="#334C5B" height="16" width="16" y="2413.043647" x="1249.193964"/>
   </g>
   <g stroke="null" transform="matrix(0.38194446225785983,0,0,0.37569441525082303,-388.5115827079165,-767.5668969986988) " id="svg_105"/>
   <g stroke="null" transform="matrix(0.38194446225785983,0,0,0.37569441525082303,-388.5115827079165,-767.5668969986988) " id="svg_106"/>
   <g stroke="null" transform="matrix(0.38194446225785983,0,0,0.37569441525082303,-388.5115827079165,-767.5668969986988) " id="svg_107"/>
   <g stroke="null" transform="matrix(0.38194446225785983,0,0,0.37569441525082303,-388.5115827079165,-767.5668969986988) " id="svg_108"/>
   <g stroke="null" transform="matrix(0.38194446225785983,0,0,0.37569441525082303,-388.5115827079165,-767.5668969986988) " id="svg_109"/>
   <g stroke="null" transform="matrix(0.38194446225785983,0,0,0.37569441525082303,-388.5115827079165,-767.5668969986988) " id="svg_110"/>
   <g stroke="null" transform="matrix(0.38194446225785983,0,0,0.37569441525082303,-388.5115827079165,-767.5668969986988) " id="svg_111"/>
   <g stroke="null" transform="matrix(0.38194446225785983,0,0,0.37569441525082303,-388.5115827079165,-767.5668969986988) " id="svg_112"/>
   <g stroke="null" transform="matrix(0.38194446225785983,0,0,0.37569441525082303,-388.5115827079165,-767.5668969986988) " id="svg_113"/>
   <g stroke="null" transform="matrix(0.38194446225785983,0,0,0.37569441525082303,-388.5115827079165,-767.5668969986988) " id="svg_114"/>
   <g stroke="null" transform="matrix(0.38194446225785983,0,0,0.37569441525082303,-388.5115827079165,-767.5668969986988) " id="svg_115"/>
   <g stroke="null" transform="matrix(0.38194446225785983,0,0,0.37569441525082303,-388.5115827079165,-767.5668969986988) " id="svg_116"/>
   <g stroke="null" transform="matrix(0.38194446225785983,0,0,0.37569441525082303,-388.5115827079165,-767.5668969986988) " id="svg_117"/>
   <g stroke="null" transform="matrix(0.38194446225785983,0,0,0.37569441525082303,-388.5115827079165,-767.5668969986988) " id="svg_118"/>
   <g stroke="null" transform="matrix(0.38194446225785983,0,0,0.37569441525082303,-388.5115827079165,-767.5668969986988) " id="svg_119"/>
  </g>
  <g id="svg_271">
   <ellipse stroke="null" ry="59" rx="47" id="svg_269" cy="91.500038" cx="385.5" fill-opacity="null" stroke-opacity="null" stroke-width="null" fill="#189bf2"/>
   <g stroke="null" id="svg_267">
    <rect stroke="null" transform="matrix(0.38194446225785983,0,0,0.37569441525082303,-388.51158270791643,-767.5668969986987) " id="svg_235" fill="#189bf2" height="16" width="24" y="2093.235622" x="1805.55753"/>
    <path stroke="null" id="svg_236" fill="#189bf2" d="m316.388895,27.866702l3.055556,0l15.277779,0l0,6.01111l-12.222223,0l0,76.695761l64.16667,54.511757l64.166669,-54.511757l0,-76.695761l-12.222223,0l0,-6.01111l15.277779,0l3.055556,0l0,-12.022222l-140.555563,0l0,12.022222zm61.111114,105.122303l-6.111111,0l0,-6.011111l6.111111,0l0,6.011111zm12.222223,12.022221l-6.111111,0l0,-6.011111l6.111111,0l0,6.011111zm0,-12.022221l-6.111111,0l0,-6.011111l6.111111,0l0,6.011111zm12.222223,0l-6.111111,0l0,-6.011111l6.111111,0l0,6.011111zm-15.277778,-96.177771c23.58889,0 42.777779,18.874888 42.777779,42.077775s-19.188889,42.077774 -42.777779,42.077774s-42.77778,-18.874887 -42.77778,-42.077774c0,-23.199882 19.18889,-42.077775 42.77778,-42.077775z"/>
    <rect stroke="null" transform="matrix(0.38194446225785983,0,0,0.37569441525082303,-388.51158270791643,-767.5668969986987) " id="svg_237" fill="#189bf2" height="16" width="24" y="2093.235622" x="2229.55753"/>
    <g stroke="null" transform="matrix(0.38194446225785983,0,0,0.37569441525082303,-388.51158270791643,-767.5668969986987) " id="svg_251">
     <path stroke="null" id="svg_245" fill="#334C5B" d="m2261.55755,2077.235672l-32,0c0,-8 -3.576,-8 -8,-8l-384,0c-4.424,0 -8,0 -8,8l-32,0c-4.424,0 -8,3.392 -8,7.808l0,32c0,4.424 3.576,8.192 8,8.192l32,0c0,8 3.576,8 8,8l8,0l0,207.808c0,2.328 1.008,4.528 2.776,6.056l13.224,11.424l0,54.712l16,0l0,-40.896l16,13.816l0,51.08l16,0l0,-37.256l16,13.816l0,55.44l16,0l0,-41.624l16,13.816l0,51.808l16,0l0,-37.984l16,13.816l0,48.168l16,0l0,-34.344l16,13.816l0,52.528l16,0l0,-52.528l16,-13.816l0,34.344l16,0l0,-48.168l16,-13.816l0,37.984l16,0l0,-51.8l16,-13.816l0,41.616l16,0l0,-55.44l16,-13.816l0,37.256l16,0l0,-51.072l16,-13.816l0,40.888l16,0l0,-54.712l13.224,-11.424c1.768,-1.52 2.776,-3.728 2.776,-6.056l0,-207.808l8,0c4.424,0 8,0 8,-8l32,0c4.424,0 8,-3.768 8,-8.192l0,-32c0,-4.416 -3.576,-7.808 -8,-7.808zm-432,32l-24,0l0,-16l24,0l0,16zm384,8l-8,0l-40,0l0,16l32,0l0,204.144l-168,145.096l-168,-145.096l0,-204.144l32,0l0,-16l-40,0l-8,0l0,-32l368,0l0,32zm40,-8l-24,0l0,-16l24,0l0,16z"/>
    </g>
    <g stroke="null" transform="matrix(0.38194446225785983,0,0,0.37569441525082303,-388.51158270791643,-767.5668969986987) " id="svg_252"/>
    <g stroke="null" transform="matrix(0.38194446225785983,0,0,0.37569441525082303,-388.51158270791643,-767.5668969986987) " id="svg_253"/>
    <g stroke="null" transform="matrix(0.38194446225785983,0,0,0.37569441525082303,-388.51158270791643,-767.5668969986987) " id="svg_254"/>
    <g stroke="null" transform="matrix(0.38194446225785983,0,0,0.37569441525082303,-388.51158270791643,-767.5668969986987) " id="svg_255"/>
    <g stroke="null" transform="matrix(0.38194446225785983,0,0,0.37569441525082303,-388.51158270791643,-767.5668969986987) " id="svg_256"/>
    <g stroke="null" transform="matrix(0.38194446225785983,0,0,0.37569441525082303,-388.51158270791643,-767.5668969986987) " id="svg_257"/>
    <g stroke="null" transform="matrix(0.38194446225785983,0,0,0.37569441525082303,-388.51158270791643,-767.5668969986987) " id="svg_258"/>
    <g stroke="null" transform="matrix(0.38194446225785983,0,0,0.37569441525082303,-388.51158270791643,-767.5668969986987) " id="svg_259"/>
    <g stroke="null" transform="matrix(0.38194446225785983,0,0,0.37569441525082303,-388.51158270791643,-767.5668969986987) " id="svg_260"/>
    <g stroke="null" transform="matrix(0.38194446225785983,0,0,0.37569441525082303,-388.51158270791643,-767.5668969986987) " id="svg_261"/>
    <g stroke="null" transform="matrix(0.38194446225785983,0,0,0.37569441525082303,-388.51158270791643,-767.5668969986987) " id="svg_262"/>
    <g stroke="null" transform="matrix(0.38194446225785983,0,0,0.37569441525082303,-388.51158270791643,-767.5668969986987) " id="svg_263"/>
    <g stroke="null" transform="matrix(0.38194446225785983,0,0,0.37569441525082303,-388.51158270791643,-767.5668969986987) " id="svg_264"/>
    <g stroke="null" transform="matrix(0.38194446225785983,0,0,0.37569441525082303,-388.51158270791643,-767.5668969986987) " id="svg_265"/>
    <g stroke="null" transform="matrix(0.38194446225785983,0,0,0.37569441525082303,-388.51158270791643,-767.5668969986987) " id="svg_266"/>
   </g>
   <g stroke="null" fill="#189bf2" id="svg_234">
    <path stroke="null" id="svg_192" fill="#E5E8E8" d="m409.666676,84.738951l-9.684332,4.641699l-3.358444,14.510064l6.269222,6.030768l15.702332,0c2.735111,-5.433124 4.293444,-10.426166 4.293444,-16.321105c0,-0.865678 -0.079333,-1.727734 -0.145444,-2.582545l-13.076776,-6.278881z"/>
    <path stroke="null" id="svg_193" fill="#2aaaf9" d="m368.50968,123.056965l1.239111,-9.513401l-11.956665,0c2.852222,3.622083 6.501555,7.070306 10.717554,9.513401z"/>
    <path stroke="null" id="svg_194" fill="#E5E8E8" d="m393.773566,106.299399l-13.54711,0l-6.54311,6.253526l-1.605555,12.291538c4.550333,2.004823 9.593666,3.149401 14.922221,3.149401s10.369999,-1.151822 14.920332,-3.156645l-1.603667,-12.284294l-6.54311,-6.253526z"/>
    <g stroke="null" transform="matrix(0.23611108747934514,0,0,0.22638017939651375,-394.94404470009,-178.5541661333521) " id="svg_195">
     <path stroke="null" id="svg_196" fill="#EBC858" d="m3311.763371,1058.105301c3.264,0 8,-6.232 8,-16s-4.736,-16 -8,-16s-8,6.232 -8,16s4.736,16 8,16z"/>
     <path stroke="null" id="svg_197" fill="#EBC858" d="m3454.507371,1122.297301l1.256,0l0,-151.752l-73.544,100.296c-1.736,2.36 -4.552,3.608 -7.52,3.2c-2.904,-0.392 -5.36,-2.344 -6.408,-5.08l-56.528,-148.384l-56.52,148.376c-1.048,2.736 -3.504,4.688 -6.408,5.08c-2.96,0.392 -5.792,-0.848 -7.52,-3.2l-73.552,-100.288l0,151.752l1.256,0l285.488,0zm-30.744,-32.192l16,0l0,16l-16,0l0,-16zm-32,0l16,0l0,16l-16,0l0,-16zm-32,0l16,0l0,16l-16,0l0,-16zm-16,16l-16,0l0,-16l16,0l0,16zm-32,-96c13.464,0 24,14.056 24,32s-10.536,32 -24,32s-24,-14.056 -24,-32s10.536,-32 24,-32zm-32,80l16,0l0,16l-16,0l0,-16zm-32,0l16,0l0,16l-16,0l0,-16zm-32,0l16,0l0,16l-16,0l0,-16zm-32,0l16,0l0,16l-16,0l0,-16z"/>
    </g>
    <path stroke="null" id="svg_198" fill="#E5E8E8" d="m374.017679,89.38065l-9.684332,-4.641699l-13.076776,6.269825c-0.066111,0.853001 -0.145444,1.725922 -0.145444,2.5916c0,5.89494 1.558333,10.887981 4.293444,16.321105l15.702332,0l6.269222,-6.030768l-3.358444,-14.510064z"/>
    <g stroke="null" transform="matrix(0.23611108747934514,0,0,0.22638017939651375,-394.94404470009,-178.5541661333521) " id="svg_199">
     <path stroke="null" id="svg_200" fill="#189bf2" d="m3207.763371,1138.297301l-33.744,0c-5.048,8 -8.664,21.904 -11.04,33.352l44.784,-22.488l0,-10.864z"/>
     <polygon stroke="null" id="svg_201" fill="#189bf2" points="3337.34716796875,1242.297119140625 3350.59521484375,1182.5693359375 3311.7626953125,1163.097412109375 3272.931640625,1182.593017578125 3286.178955078125,1242.297119140625 "/>
    </g>
    <g stroke="null" transform="matrix(0.23611108747934514,0,0,0.22638017939651375,-394.94404470009,-178.5541661333521) " id="svg_202">
     <polygon stroke="null" id="svg_203" fill="#E5E8E8" points="3223.7626953125,1138.297119140625 3223.7626953125,1149.1611328125 3263.7626953125,1169.1611328125 3303.7626953125,1149.1611328125 3303.7626953125,1138.297119140625 "/>
     <polygon stroke="null" id="svg_204" fill="#E5E8E8" points="3399.7626953125,1149.1611328125 3399.7626953125,1138.297119140625 3319.7626953125,1138.297119140625 3319.7626953125,1149.1611328125 3359.7626953125,1169.1611328125 "/>
    </g>
    <g stroke="null" transform="matrix(0.23611108747934514,0,0,0.22638017939651375,-394.94404470009,-178.5541661333521) " id="svg_205">
     <path stroke="null" id="svg_206" fill="#2aaaf9" d="m3415.763371,1138.297301l0,10.864l44.784,22.488c-2.376,-11.448 -5.992,-25.352 -11.04,-33.352l-33.744,0z"/>
     <path stroke="null" id="svg_207" fill="#2aaaf9" d="m3390.075371,1332.321301c17.856,-10.792 33.312,-26.024 45.392,-42.024l-50.64,0l5.248,42.024z"/>
    </g>
    <g stroke="null" transform="matrix(0.23611108747934514,0,0,0.22638017939651375,-394.94404470009,-178.5541661333521) " id="svg_208">
     <path stroke="null" id="svg_209" fill="#334C5B" d="m3466.691371,1137.513301c2.968,-1.168 5.072,-4.024 5.072,-7.408l0,-184c0,-3.464 -2.224,-6.528 -5.512,-7.6c-3.296,-1.08 -6.888,0.088 -8.944,2.872l-79.304,108.144l-58.76,-154.264c-1.184,-3.096 -4.16,-5.152 -7.48,-5.152s-6.296,2.048 -7.48,5.152l-58.76,154.264l-79.304,-108.144c-2.056,-2.792 -5.656,-3.96 -8.952,-2.872c-3.28,1.072 -5.504,4.144 -5.504,7.6l0,184c0,3.376 2.104,6.24 5.072,7.408c-8.648,20.568 -13.072,42.232 -13.072,64.592c0,92.632 75.368,168 168,168s168,-75.368 168,-168c0,-22.36 -4.424,-44.024 -13.072,-64.592zm-6.144,34.136l-44.784,-22.488l0,-10.864l33.744,0c5.048,8 8.664,21.904 11.04,33.352zm-292.784,-201.104l73.544,100.296c1.736,2.352 4.56,3.592 7.52,3.2c2.904,-0.392 5.36,-2.344 6.408,-5.08l56.528,-148.384l56.52,148.376c1.048,2.736 3.504,4.688 6.408,5.08c2.968,0.408 5.792,-0.84 7.52,-3.2l73.552,-100.288l0,151.752l-1.256,0l-285.488,0l-1.256,0l0,-151.752zm144,192.512l38.832,19.512l-13.248,59.728l-51.168,0l-13.248,-59.728l38.832,-19.512zm-48,6.104l-40,-20l0,-10.864l80,0l0,10.864l-40,20zm56,-20l0,-10.864l80,0l0,10.864l-40,20l-40,-20zm-145.744,-10.864l33.744,0l0,10.864l-44.784,22.488c2.376,-11.448 5.992,-25.352 11.04,-33.352zm59.432,194.024c-17.856,-10.792 -33.312,-26.024 -45.392,-42.024l50.64,0l-5.248,42.024zm-55.504,-58.024c-11.584,-24 -18.184,-46.056 -18.184,-72.096c0,-3.824 0.336,-7.632 0.616,-11.408l55.384,-27.72l41.016,20.496l14.224,64.088l-26.552,26.64l-66.504,0zm133.816,79.808c-22.568,0 -43.92,-5.08 -63.2,-13.936l6.792,-54.256l27.72,-27.616l57.376,0l27.72,27.624l6.792,54.304c-19.28,8.856 -40.632,13.88 -63.2,13.88zm78.312,-21.784l-5.248,-42.024l50.64,0c-12.08,16 -27.536,31.232 -45.392,42.024zm55.504,-58.024l-66.504,0l-26.552,-26.64l14.224,-64.048l41.016,-20.536l55.384,27.68c0.28,3.776 0.616,7.632 0.616,11.456c0,26.032 -6.6,48.088 -18.184,72.088z"/>
     <path stroke="null" id="svg_210" fill="#334C5B" d="m3311.763371,1074.105301c13.464,0 24,-14.056 24,-32s-10.536,-32 -24,-32s-24,14.056 -24,32c0,17.952 10.536,32 24,32zm0,-48c3.264,0 8,6.232 8,16s-4.736,16 -8,16s-8,-6.232 -8,-16s4.736,-16 8,-16z"/>
     <rect stroke="null" id="svg_211" fill="#334C5B" height="16" width="16" y="1090.105301" x="3327.763371"/>
     <rect stroke="null" id="svg_212" fill="#334C5B" height="16" width="16" y="1090.105301" x="3359.763371"/>
     <rect stroke="null" id="svg_213" fill="#334C5B" height="16" width="16" y="1090.105301" x="3391.763371"/>
     <rect stroke="null" id="svg_214" fill="#334C5B" height="16" width="16" y="1090.105301" x="3423.763371"/>
     <rect stroke="null" id="svg_215" fill="#334C5B" height="16" width="16" y="1090.105301" x="3183.763371"/>
     <rect stroke="null" id="svg_216" fill="#334C5B" height="16" width="16" y="1090.105301" x="3215.763371"/>
     <rect stroke="null" id="svg_217" fill="#334C5B" height="16" width="16" y="1090.105301" x="3247.763371"/>
     <rect stroke="null" id="svg_218" fill="#334C5B" height="16" width="16" y="1090.105301" x="3279.763371"/>
    </g>
    <g stroke="null" transform="matrix(0.23611108747934514,0,0,0.22638017939651375,-394.94404470009,-178.5541661333521) " id="svg_219"/>
    <g stroke="null" transform="matrix(0.23611108747934514,0,0,0.22638017939651375,-394.94404470009,-178.5541661333521) " id="svg_220"/>
    <g stroke="null" transform="matrix(0.23611108747934514,0,0,0.22638017939651375,-394.94404470009,-178.5541661333521) " id="svg_221"/>
    <g stroke="null" transform="matrix(0.23611108747934514,0,0,0.22638017939651375,-394.94404470009,-178.5541661333521) " id="svg_222"/>
    <g stroke="null" transform="matrix(0.23611108747934514,0,0,0.22638017939651375,-394.94404470009,-178.5541661333521) " id="svg_223"/>
    <g stroke="null" transform="matrix(0.23611108747934514,0,0,0.22638017939651375,-394.94404470009,-178.5541661333521) " id="svg_224"/>
    <g stroke="null" transform="matrix(0.23611108747934514,0,0,0.22638017939651375,-394.94404470009,-178.5541661333521) " id="svg_225"/>
    <g stroke="null" transform="matrix(0.23611108747934514,0,0,0.22638017939651375,-394.94404470009,-178.5541661333521) " id="svg_226"/>
    <g stroke="null" transform="matrix(0.23611108747934514,0,0,0.22638017939651375,-394.94404470009,-178.5541661333521) " id="svg_227"/>
    <g stroke="null" transform="matrix(0.23611108747934514,0,0,0.22638017939651375,-394.94404470009,-178.5541661333521) " id="svg_228"/>
    <g stroke="null" transform="matrix(0.23611108747934514,0,0,0.22638017939651375,-394.94404470009,-178.5541661333521) " id="svg_229"/>
    <g stroke="null" transform="matrix(0.23611108747934514,0,0,0.22638017939651375,-394.94404470009,-178.5541661333521) " id="svg_230"/>
    <g stroke="null" transform="matrix(0.23611108747934514,0,0,0.22638017939651375,-394.94404470009,-178.5541661333521) " id="svg_231"/>
    <g stroke="null" transform="matrix(0.23611108747934514,0,0,0.22638017939651375,-394.94404470009,-178.5541661333521) " id="svg_232"/>
    <g stroke="null" transform="matrix(0.23611108747934514,0,0,0.22638017939651375,-394.94404470009,-178.5541661333521) " id="svg_233"/>
   </g>
  </g>
 </g>
</svg>